<mxfile host="app.diagrams.net" modified="2022-05-09T15:34:20.976Z" agent="5.0 (Windows NT 10.0; Win64; x64) AppleWebKit/537.36 (KHTML, like Gecko) Chrome/99.0.4844.84 Safari/537.36 OPR/85.0.4341.75" etag="TsaMSiCz8odTMu1mTGKV" version="18.0.2" type="github">
  <diagram id="53BumLkaKDK1KYzclEw2" name="PÃ¡gina-1">
    <mxGraphModel dx="1238" dy="548" grid="1" gridSize="10" guides="1" tooltips="1" connect="1" arrows="1" fold="1" page="1" pageScale="1" pageWidth="827" pageHeight="1169" math="0" shadow="0">
      <root>
        <mxCell id="0" />
        <mxCell id="1" parent="0" />
        <mxCell id="msjhiTr1S4sQjELjs0MU-1" value="Universidad" style="shape=umlFrame;whiteSpace=wrap;html=1;width=90;height=30;" vertex="1" parent="1">
          <mxGeometry x="110" y="60" width="690" height="420" as="geometry" />
        </mxCell>
        <mxCell id="msjhiTr1S4sQjELjs0MU-21" style="edgeStyle=orthogonalEdgeStyle;rounded=0;orthogonalLoop=1;jettySize=auto;html=1;entryX=0;entryY=0.5;entryDx=0;entryDy=0;" edge="1" parent="1" source="msjhiTr1S4sQjELjs0MU-2" target="msjhiTr1S4sQjELjs0MU-3">
          <mxGeometry relative="1" as="geometry" />
        </mxCell>
        <mxCell id="msjhiTr1S4sQjELjs0MU-2" value="Registrado" style="shape=umlActor;verticalLabelPosition=bottom;verticalAlign=top;html=1;" vertex="1" parent="1">
          <mxGeometry x="40" y="180" width="30" height="60" as="geometry" />
        </mxCell>
        <mxCell id="msjhiTr1S4sQjELjs0MU-3" value="Login" style="ellipse;whiteSpace=wrap;html=1;" vertex="1" parent="1">
          <mxGeometry x="150" y="220" width="100" height="50" as="geometry" />
        </mxCell>
        <mxCell id="msjhiTr1S4sQjELjs0MU-4" value="Unirte club" style="ellipse;whiteSpace=wrap;html=1;" vertex="1" parent="1">
          <mxGeometry x="322.5" y="110" width="120" height="40" as="geometry" />
        </mxCell>
        <mxCell id="msjhiTr1S4sQjELjs0MU-5" value="Unirte proyecto" style="ellipse;whiteSpace=wrap;html=1;" vertex="1" parent="1">
          <mxGeometry x="340" y="160" width="117.5" height="40" as="geometry" />
        </mxCell>
        <mxCell id="msjhiTr1S4sQjELjs0MU-6" value="Solicitar &lt;br&gt;crear club" style="ellipse;whiteSpace=wrap;html=1;" vertex="1" parent="1">
          <mxGeometry x="340" y="222.5" width="115" height="40" as="geometry" />
        </mxCell>
        <mxCell id="msjhiTr1S4sQjELjs0MU-7" value="Crear Proyecto" style="ellipse;whiteSpace=wrap;html=1;" vertex="1" parent="1">
          <mxGeometry x="340" y="290" width="115" height="40" as="geometry" />
        </mxCell>
        <mxCell id="msjhiTr1S4sQjELjs0MU-8" value="Administrar club" style="ellipse;whiteSpace=wrap;html=1;" vertex="1" parent="1">
          <mxGeometry x="550" y="217.5" width="90" height="45" as="geometry" />
        </mxCell>
        <mxCell id="msjhiTr1S4sQjELjs0MU-9" value="Administrar proyecto" style="ellipse;whiteSpace=wrap;html=1;" vertex="1" parent="1">
          <mxGeometry x="560" y="285" width="90" height="45" as="geometry" />
        </mxCell>
        <mxCell id="msjhiTr1S4sQjELjs0MU-10" value="Extends" style="endArrow=block;endSize=16;endFill=0;html=1;rounded=0;exitX=0;exitY=0.5;exitDx=0;exitDy=0;entryX=1;entryY=0.5;entryDx=0;entryDy=0;" edge="1" parent="1" source="msjhiTr1S4sQjELjs0MU-4" target="msjhiTr1S4sQjELjs0MU-3">
          <mxGeometry width="160" relative="1" as="geometry">
            <mxPoint x="410" y="245" as="sourcePoint" />
            <mxPoint x="250" y="245" as="targetPoint" />
          </mxGeometry>
        </mxCell>
        <mxCell id="msjhiTr1S4sQjELjs0MU-11" value="Extends" style="endArrow=block;endSize=16;endFill=0;html=1;rounded=0;exitX=0;exitY=0.5;exitDx=0;exitDy=0;entryX=1;entryY=0.5;entryDx=0;entryDy=0;" edge="1" parent="1" source="msjhiTr1S4sQjELjs0MU-5" target="msjhiTr1S4sQjELjs0MU-3">
          <mxGeometry width="160" relative="1" as="geometry">
            <mxPoint x="290" y="120" as="sourcePoint" />
            <mxPoint x="260" y="255" as="targetPoint" />
          </mxGeometry>
        </mxCell>
        <mxCell id="msjhiTr1S4sQjELjs0MU-12" value="Extends" style="endArrow=block;endSize=16;endFill=0;html=1;rounded=0;exitX=0;exitY=0.5;exitDx=0;exitDy=0;entryX=1;entryY=0.5;entryDx=0;entryDy=0;" edge="1" parent="1" source="msjhiTr1S4sQjELjs0MU-6" target="msjhiTr1S4sQjELjs0MU-3">
          <mxGeometry width="160" relative="1" as="geometry">
            <mxPoint x="292.5" y="170" as="sourcePoint" />
            <mxPoint x="260" y="255" as="targetPoint" />
          </mxGeometry>
        </mxCell>
        <mxCell id="msjhiTr1S4sQjELjs0MU-13" value="Extends" style="endArrow=block;endSize=16;endFill=0;html=1;rounded=0;exitX=0;exitY=0.5;exitDx=0;exitDy=0;entryX=1;entryY=0.5;entryDx=0;entryDy=0;" edge="1" parent="1" source="msjhiTr1S4sQjELjs0MU-7" target="msjhiTr1S4sQjELjs0MU-3">
          <mxGeometry width="160" relative="1" as="geometry">
            <mxPoint x="295" y="230" as="sourcePoint" />
            <mxPoint x="260" y="255" as="targetPoint" />
          </mxGeometry>
        </mxCell>
        <mxCell id="msjhiTr1S4sQjELjs0MU-14" value="Include" style="html=1;verticalAlign=bottom;endArrow=open;dashed=1;endSize=8;rounded=0;entryX=0;entryY=0.5;entryDx=0;entryDy=0;exitX=1;exitY=0.5;exitDx=0;exitDy=0;" edge="1" parent="1" source="msjhiTr1S4sQjELjs0MU-6" target="msjhiTr1S4sQjELjs0MU-8">
          <mxGeometry relative="1" as="geometry">
            <mxPoint x="450" y="280" as="sourcePoint" />
            <mxPoint x="370" y="280" as="targetPoint" />
          </mxGeometry>
        </mxCell>
        <mxCell id="msjhiTr1S4sQjELjs0MU-16" value="Include" style="html=1;verticalAlign=bottom;endArrow=open;dashed=1;endSize=8;rounded=0;entryX=0;entryY=0.5;entryDx=0;entryDy=0;exitX=1;exitY=0.5;exitDx=0;exitDy=0;" edge="1" parent="1" source="msjhiTr1S4sQjELjs0MU-7" target="msjhiTr1S4sQjELjs0MU-9">
          <mxGeometry relative="1" as="geometry">
            <mxPoint x="445" y="330" as="sourcePoint" />
            <mxPoint x="530" y="322.5" as="targetPoint" />
          </mxGeometry>
        </mxCell>
        <mxCell id="msjhiTr1S4sQjELjs0MU-17" value="Ver noticias" style="ellipse;whiteSpace=wrap;html=1;" vertex="1" parent="1">
          <mxGeometry x="340" y="360" width="115" height="40" as="geometry" />
        </mxCell>
        <mxCell id="msjhiTr1S4sQjELjs0MU-18" value="Extends" style="endArrow=block;endSize=16;endFill=0;html=1;rounded=0;exitX=0;exitY=0.5;exitDx=0;exitDy=0;entryX=1;entryY=1;entryDx=0;entryDy=0;" edge="1" parent="1" source="msjhiTr1S4sQjELjs0MU-17" target="msjhiTr1S4sQjELjs0MU-3">
          <mxGeometry width="160" relative="1" as="geometry">
            <mxPoint x="322.5" y="445" as="sourcePoint" />
            <mxPoint x="253" y="250" as="targetPoint" />
          </mxGeometry>
        </mxCell>
        <mxCell id="msjhiTr1S4sQjELjs0MU-19" value="crear noticias" style="ellipse;whiteSpace=wrap;html=1;" vertex="1" parent="1">
          <mxGeometry x="560" y="360" width="90" height="45" as="geometry" />
        </mxCell>
        <mxCell id="msjhiTr1S4sQjELjs0MU-20" value="Include" style="html=1;verticalAlign=bottom;endArrow=open;dashed=1;endSize=8;rounded=0;entryX=0;entryY=0.5;entryDx=0;entryDy=0;exitX=1;exitY=0.5;exitDx=0;exitDy=0;" edge="1" parent="1" source="msjhiTr1S4sQjELjs0MU-17" target="msjhiTr1S4sQjELjs0MU-19">
          <mxGeometry relative="1" as="geometry">
            <mxPoint x="445" y="390" as="sourcePoint" />
            <mxPoint x="570" y="372.5" as="targetPoint" />
          </mxGeometry>
        </mxCell>
      </root>
    </mxGraphModel>
  </diagram>
</mxfile>
